ffmpeg version 8.0.1 Copyright (c) 2000-2025 the FFmpeg developers
  built with Apple clang version 16.0.0 (clang-1600.0.26.6)
  configuration: --prefix=/opt/homebrew/Cellar/ffmpeg/8.0.1 --enable-shared --enable-pthreads --enable-version3 --cc=clang --host-cflags= --host-ldflags= --enable-ffplay --enable-gnutls --enable-gpl --enable-libaom --enable-libaribb24 --enable-libbluray --enable-libdav1d --enable-libharfbuzz --enable-libjxl --enable-libmp3lame --enable-libopus --enable-librav1e --enable-librist --enable-librubberband --enable-libsnappy --enable-libsrt --enable-libssh --enable-libsvtav1 --enable-libtesseract --enable-libtheora --enable-libvidstab --enable-libvmaf --enable-libvorbis --enable-libvpx --enable-libwebp --enable-libx264 --enable-libx265 --enable-libxml2 --enable-libxvid --enable-lzma --enable-libfontconfig --enable-libfreetype --enable-frei0r --enable-libass --enable-libopencore-amrnb --enable-libopencore-amrwb --enable-libopenjpeg --enable-libspeex --enable-libsoxr --enable-libzmq --enable-libzimg --disable-libjack --disable-indev=jack --enable-videotoolbox --enable-audiotoolbox --enable-neon
  libavutil      60.  8.100 / 60.  8.100
  libavcodec     62. 11.100 / 62. 11.100
  libavformat    62.  3.100 / 62.  3.100
  libavdevice    62.  1.100 / 62.  1.100
  libavfilter    11.  4.100 / 11.  4.100
  libswscale      9.  1.100 /  9.  1.100
  libswresample   6.  1.100 /  6.  1.100
[AVFoundation indev @ 0x80102c140] Configuration of video device failed, falling back to default.
Input #0, avfoundation, from '1':
  Duration: N/A, start: 569293.794533, bitrate: N/A
  Stream #0:0: Video: rawvideo (UYVY / 0x59565955), uyvy422, 1280x720, 5 tbr, 1000k tbn, start 569293.794533
Stream mapping:
  Stream #0:0 -> #0:0 (rawvideo (native) -> hevc (hevc_videotoolbox))
Press [q] to stop, [?] for help
Output #0, null, to 'pipe:':
  Metadata:
    encoder         : Lavf62.3.100
  Stream #0:0: Video: hevc, ayuv(tv, progressive), 1280x720, q=2-31, 8000 kb/s, 5 fps, 5 tbn
    Metadata:
      encoder         : Lavc62.11.100 hevc_videotoolbox
frame=    2 fps=0.0 q=-0.0 size=N/A time=00:00:00.20 bitrate=N/A speed=0.396x elapsed=0:00:00.50    frame=    4 fps=4.0 q=-0.0 size=N/A time=00:00:00.60 bitrate=N/A speed=0.594x elapsed=0:00:01.01    frame=    7 fps=4.6 q=-0.0 size=N/A time=00:00:01.20 bitrate=N/A speed=0.794x elapsed=0:00:01.51    frame=    9 fps=4.5 q=-0.0 size=N/A time=00:00:01.60 bitrate=N/A speed=0.794x elapsed=0:00:02.01    frame=   12 fps=4.8 q=-0.0 size=N/A time=00:00:02.20 bitrate=N/A speed=0.873x elapsed=0:00:02.51    frame=   15 fps=5.0 q=-0.0 size=N/A time=00:00:02.80 bitrate=N/A speed=0.926x elapsed=0:00:03.02    frame=   17 fps=4.8 q=-0.0 size=N/A time=00:00:03.20 bitrate=N/A speed=0.908x elapsed=0:00:03.52    frame=   20 fps=5.0 q=-0.0 size=N/A time=00:00:03.80 bitrate=N/A speed=0.943x elapsed=0:00:04.02    frame=   22 fps=4.9 q=-0.0 size=N/A time=00:00:04.20 bitrate=N/A speed=0.926x elapsed=0:00:04.53    frame=   25 fps=5.0 q=-0.0 size=N/A time=00:00:04.80 bitrate=N/A speed=0.953x elapsed=0:00:05.03    frame=   27 fps=4.9 q=-0.0 size=N/A time=00:00:05.20 bitrate=N/A speed=0.939x elapsed=0:00:05.53    frame=   30 fps=5.0 q=-0.0 size=N/A time=00:00:05.80 bitrate=N/A speed=0.96x elapsed=0:00:06.04    frame=   32 fps=4.9 q=-0.0 size=N/A time=00:00:06.20 bitrate=N/A speed=0.947x elapsed=0:00:06.54    frame=   34 fps=4.8 q=-0.0 size=N/A time=00:00:06.60 bitrate=N/A speed=0.936x elapsed=0:00:07.04    frame=   37 fps=4.9 q=-0.0 size=N/A time=00:00:07.20 bitrate=N/A speed=0.954x elapsed=0:00:07.54    frame=   40 fps=5.0 q=-0.0 size=N/A time=00:00:07.80 bitrate=N/A speed=0.969x elapsed=0:00:08.05    frame=   42 fps=4.9 q=-0.0 size=N/A time=00:00:08.20 bitrate=N/A speed=0.959x elapsed=0:00:08.55    frame=   45 fps=5.0 q=-0.0 size=N/A time=00:00:08.80 bitrate=N/A speed=0.972x elapsed=0:00:09.05    frame=   47 fps=4.9 q=-0.0 size=N/A time=00:00:09.20 bitrate=N/A speed=0.963x elapsed=0:00:09.55    [out#0/null @ 0x801181440] video:9971KiB audio:0KiB subtitle:0KiB other streams:0KiB global headers:0KiB muxing overhead: unknown
frame=   50 fps=5.1 q=-0.0 Lsize=N/A time=00:00:09.80 bitrate=N/A speed=1.01x elapsed=0:00:09.73    
